PathFileType	4	(X/Y/Z)	s11c0203.trc
DataRate	CameraRate	NumFrames	NumMarkers	Units	OrigDataRate	OrigDataStartFrame	OrigNumFrames
200	200	6	48	mm	200	1750	2000
Frame#	Time	racr			lacr			c7			jug			rlel			rdr			llel			ldr			s2			lic			ric			lasi			rasi			rpsi			lpsi			rgt			lgt			rth1			rth2			rth3			rth4			rlfc			rmfc			rsh1			rsh2			rsh3			rsh4			rlmal			rcal			rtoe			rmt5			lth1			lth2			lth4			lth3			llfc			lmfc			llmal			lcal			lmt5			lsh1			lsh2			lsh3			lsh4			ltoe			SBIKE			LBIKE			RBIKE			
		X1	Y1	Z1	X2	Y2	Z2	X3	Y3	Z3	X4	Y4	Z4	X5	Y5	Z5	X6	Y6	Z6	X7	Y7	Z7	X8	Y8	Z8	X9	Y9	Z9	X10	Y10	Z10	X11	Y11	Z11	X12	Y12	Z12	X13	Y13	Z13	X14	Y14	Z14	X15	Y15	Z15	X16	Y16	Z16	X17	Y17	Z17	X18	Y18	Z18	X19	Y19	Z19	X20	Y20	Z20	X21	Y21	Z21	X22	Y22	Z22	X23	Y23	Z23	X24	Y24	Z24	X25	Y25	Z25	X26	Y26	Z26	X27	Y27	Z27	X28	Y28	Z28	X29	Y29	Z29	X30	Y30	Z30	X31	Y31	Z31	X32	Y32	Z32	X33	Y33	Z33	X34	Y34	Z34	X35	Y35	Z35	X36	Y36	Z36	X37	Y37	Z37	X38	Y38	Z38	X39	Y39	Z39	X40	Y40	Z40	X41	Y41	Z41	X42	Y42	Z42	X43	Y43	Z43	X44	Y44	Z44	X45	Y45	Z45	X46	Y46	Z46	X47	Y47	Z47	X48	Y48	Z48	
1750	8.7500	476.991317	1374.928282	-42.645177	517.191195	1381.864142	-352.749433	428.604976	1485.054788	-203.421496	462.195422	1309.634794	-205.563133	533.784258	1116.202852	47.001719	753.784965	966.803221	-81.631729	549.649763	1155.664572	-566.445800	770.129916	949.076358	-468.172238	-109.944947	1195.413955	-276.824290	119.409406	1209.790440	-464.504780	102.728946	1221.522672	-68.757165	156.474288	1141.314054	-439.393503	137.022495	1167.961956	-117.689356	-76.023740	1281.427364	-225.790315	-70.305894	1272.635043	-318.880391	69.489714	1109.541550	-45.653524	14.369635	1069.916542	-478.394595	203.766272	1055.586002	-56.569935	292.531208	1051.554706	-70.085339	365.383432	1004.383785	-82.657270	301.357103	1085.611946	-83.838147	469.998127	961.869476	-106.117186	470.713741	935.770760	-237.415379	422.934583	808.145847	-85.527140	408.753024	721.598128	-98.301479	355.986084	652.359970	-95.031714	432.622743	714.246226	-130.140301	287.086016	523.254438	-101.394572	217.979067	510.998632	-143.652609	496.505583	440.187602	-153.459641	427.108511	421.972236	-80.754422	107.704247	951.668835	-496.057421	174.444608	898.254595	-494.359113	204.758475	919.090856	-490.642630	207.185201	814.519011	-489.601854	273.831236	695.997476	-466.942022	303.468613	691.543689	-341.391105	6.148145	358.839302	-418.236041	-58.045618	331.905038	-376.006399	118.308339	225.575215	-450.953791	191.956268	599.062849	-477.226666	162.800131	521.524279	-456.406621	95.788593	464.876443	-444.806853	191.072728	506.031144	-434.139241	219.355585	218.411323	-388.793222	-216.343598	949.290452	-258.205190	-18.032014	80.796423	-460.934394	-18.290829	81.008946	-62.240623	
1751	8.7550	477.341732	1375.592743	-43.625532	517.470801	1379.602430	-352.712092	428.533009	1485.144488	-204.770787	461.823958	1309.521479	-205.537575	534.843147	1116.937290	45.464636	753.385853	966.517267	-81.615228	550.547392	1154.315652	-566.917748	769.173683	948.709869	-467.422007	-110.289833	1194.716093	-278.022047	119.111318	1208.973354	-464.701369	101.631181	1219.999533	-68.741366	156.347006	1140.531209	-439.961196	136.882994	1165.269548	-117.025237	-76.165633	1280.596423	-227.029817	-70.815105	1271.901925	-319.824294	68.187197	1105.981325	-46.656111	15.727777	1069.435588	-478.287730	202.496472	1049.811276	-57.437878	291.006864	1043.760201	-70.777780	363.264290	995.298443	-83.138834	300.843947	1078.217808	-83.901077	466.440964	950.272976	-106.118125	466.280781	923.405059	-239.706820	419.835505	795.593574	-85.676141	406.657184	708.875252	-98.294522	354.772964	639.041522	-94.633169	429.453791	701.605243	-130.791922	288.279227	509.206829	-101.130027	219.460378	494.780996	-144.001587	500.233341	434.870686	-152.979812	431.452688	413.515673	-80.362451	112.360972	953.528176	-496.208803	180.187748	901.529269	-493.983614	209.991206	922.966255	-489.590517	214.577855	818.461793	-489.468677	281.716054	700.944091	-466.918393	309.534584	696.180056	-342.270580	6.492674	370.713775	-418.556461	-58.667057	346.515382	-376.573903	114.070212	233.820815	-450.875908	197.567881	605.967195	-477.212233	166.765399	529.068779	-456.528653	98.480257	473.957606	-444.855192	194.709488	512.906572	-434.271641	214.505224	223.082258	-388.323001	-216.397174	949.213698	-258.409264	-18.054261	80.746061	-460.934485	-18.331005	80.999397	-62.226333	
1752	8.7600	477.800502	1376.761909	-44.798714	517.738242	1378.939349	-353.240863	428.296283	1485.195096	-206.305663	461.625522	1309.306625	-205.717073	535.996006	1117.822157	43.656050	752.994893	966.439650	-81.503454	551.183794	1153.616316	-566.704323	768.297872	948.274272	-466.358356	-110.565529	1193.699047	-279.069595	118.786204	1208.186700	-464.746446	100.996344	1218.217704	-68.520439	156.266173	1139.861542	-440.452868	136.988964	1162.290436	-116.278931	-75.000516	1278.851359	-229.205716	-71.252380	1270.969239	-320.692311	67.258948	1102.262201	-47.859909	17.232340	1068.512094	-478.862416	201.622451	1043.736876	-58.444723	289.950366	1035.608372	-71.123369	361.034530	985.567715	-83.726435	300.512784	1069.816618	-84.026257	462.609560	938.362195	-106.051663	463.855341	910.980008	-238.063825	416.575369	782.670004	-85.831204	404.396788	695.796335	-98.294075	353.509737	625.330303	-94.202065	427.439711	688.745684	-130.774351	289.508991	494.999000	-101.378562	220.692463	478.744696	-144.050170	503.479825	428.615793	-152.629393	435.423920	404.747579	-80.087623	117.036100	955.593796	-496.224123	185.882099	904.913123	-493.540516	215.190588	926.780788	-488.506902	221.870353	822.482295	-489.205236	289.473007	706.152478	-466.755764	316.084939	701.288108	-341.787653	7.599088	382.671639	-418.845579	-58.445425	361.503635	-377.024060	110.401427	242.320497	-450.711888	203.468327	613.193198	-477.179937	171.147952	536.884913	-456.536957	101.886938	483.017594	-444.813591	198.787912	520.115585	-434.298477	210.165604	227.875002	-387.840351	-216.449074	949.138033	-258.545207	-18.075519	80.683670	-460.957942	-18.159677	80.989656	-62.186190	
1753	8.7650	478.496386	1378.214031	-46.326341	517.851848	1379.207344	-354.286672	427.849460	1485.198935	-208.127572	461.651052	1309.255415	-205.947331	536.997808	1118.745205	41.627595	752.613535	966.471194	-81.365356	551.290305	1153.275763	-566.344350	767.437807	947.853281	-464.865288	-111.004017	1192.567842	-279.911951	118.487720	1207.230480	-464.652795	100.180123	1216.156691	-68.796586	156.159711	1139.142940	-440.657624	137.306272	1159.256976	-115.646387	-74.937971	1277.180828	-229.841582	-71.300508	1269.864416	-321.742374	66.601471	1098.061512	-49.593400	18.964818	1068.073012	-479.002534	201.013106	1037.019876	-59.351836	288.976384	1027.081784	-71.328629	358.861401	975.189450	-84.335966	300.241720	1060.746142	-83.543554	458.658554	925.555109	-106.427873	460.555350	898.184168	-237.304557	413.213491	769.214416	-85.872951	402.325591	682.074382	-98.602881	352.315519	610.953436	-93.894599	424.850453	675.380100	-131.176232	290.642848	480.843643	-101.632418	222.112073	462.951194	-144.213267	506.336321	421.416692	-152.321294	438.935124	395.430269	-79.978271	121.697983	957.754861	-496.173123	191.520595	908.391449	-493.082864	220.305934	930.834428	-487.396484	229.030532	826.649987	-488.825795	297.226639	711.579180	-466.435990	322.382603	706.702929	-341.143762	9.554388	394.784137	-418.975037	-56.634369	376.906928	-377.579868	107.289506	251.063691	-450.610232	209.730986	620.638506	-477.092833	176.173338	544.947597	-456.395177	106.029369	492.142955	-444.682695	203.554363	527.754198	-434.103520	206.207072	232.834249	-387.410861	-216.480253	949.087756	-258.593644	-18.075333	80.631454	-460.951660	-18.152156	80.918861	-62.191023	
1754	8.7700	479.390230	1379.717341	-48.089448	517.819320	1379.978981	-355.938897	427.219471	1485.107366	-210.111853	461.905898	1309.277763	-206.298298	537.803918	1119.725814	39.830047	752.194752	966.542843	-81.119815	550.925690	1152.902629	-565.909911	766.792100	947.554799	-463.139354	-111.408889	1191.196622	-280.478728	118.356584	1206.570872	-464.670958	100.067722	1214.178258	-68.525313	156.135537	1138.413441	-440.659474	137.944528	1156.361602	-114.582473	-75.309737	1275.840045	-230.361048	-71.752094	1268.501582	-322.143059	66.409263	1093.969588	-50.690736	20.735867	1067.710609	-478.995559	200.150789	1030.304690	-59.627606	287.840184	1018.117684	-71.166381	356.441786	964.598663	-84.679867	300.782824	1050.565156	-83.707411	454.684397	912.470239	-106.507507	456.967284	884.407710	-234.715214	409.723605	755.390095	-85.920006	399.933009	668.371178	-98.961678	350.968312	596.498703	-93.706266	422.343205	661.856073	-131.629660	291.770568	467.104199	-102.145812	223.945629	447.595586	-144.766242	508.857246	413.297223	-151.930463	442.024057	385.751700	-79.813471	126.299991	960.211564	-496.339012	196.995541	911.998365	-492.575473	225.248708	934.891068	-486.353906	236.049832	830.901133	-488.370219	305.074043	717.387529	-465.976660	328.247012	712.388233	-340.683928	12.402196	407.181315	-419.110208	-54.058664	392.418646	-377.898126	104.873227	260.187611	-450.450160	216.532943	628.155871	-476.447760	181.847527	553.264139	-456.055387	110.985416	501.432763	-444.457811	208.977679	535.726771	-433.827111	202.844718	238.056335	-387.178336	-216.460850	949.052641	-258.599218	-18.097313	80.595866	-460.939504	-18.152671	80.870898	-62.196804	
1755	8.7750	480.349475	1381.205144	-50.030599	517.685128	1380.882443	-358.053998	426.574188	1484.952425	-212.312799	462.287049	1309.396268	-206.870943	538.474864	1120.695818	38.107913	751.805674	966.688812	-80.827172	550.273690	1152.482588	-565.414348	766.212340	947.348000	-461.233981	-111.874654	1189.777512	-280.915251	118.215821	1205.486136	-464.393660	99.894270	1211.781921	-68.411988	156.242811	1137.832688	-440.430716	138.817543	1153.388850	-113.655849	-76.399331	1274.687036	-230.377132	-72.699681	1267.020543	-321.954926	66.480555	1089.545720	-51.161689	22.574717	1067.418373	-478.960251	199.597792	1023.139799	-59.956049	286.917388	1008.782566	-71.441591	354.019018	953.559297	-85.368612	300.844091	1042.012401	-83.254012	450.649330	898.759703	-106.391489	452.801917	871.030477	-233.824329	406.037418	741.302429	-86.261641	397.329936	654.119706	-99.564623	349.636973	581.631466	-93.773595	419.548993	648.154389	-132.202117	292.944007	453.545860	-102.734783	225.218733	433.047561	-145.143472	511.100269	404.448035	-151.516895	444.529123	375.561612	-79.643765	130.632219	962.552062	-496.149520	202.371301	915.861295	-492.500487	230.075028	939.263630	-485.610691	242.956902	835.325668	-487.918113	313.307173	723.753446	-465.284093	334.666420	718.624724	-339.735601	16.187250	419.714378	-419.159372	-50.393563	408.063855	-378.125923	103.068084	269.510373	-450.279968	223.891268	636.170700	-476.024187	188.212247	561.920104	-455.519559	116.662759	511.009531	-444.117404	215.088828	544.011972	-433.178067	199.908276	243.335537	-386.923030	-216.399956	949.044896	-258.597603	-18.094018	80.563898	-460.933117	-18.150576	80.813106	-62.183355	
